<?xml version="1.0" encoding="UTF-8" standalone="no"?>
<svg
   viewBox="0 0 64 64"
   version="1.1"
   id="svg3"
   sodipodi:docname="favicon.svg"
   width="64"
   height="64"
   inkscape:version="1.3.2 (091e20e, 2023-11-25)"
   xmlns:inkscape="http://www.inkscape.org/namespaces/inkscape"
   xmlns:sodipodi="http://sodipodi.sourceforge.net/DTD/sodipodi-0.dtd"
   xmlns="http://www.w3.org/2000/svg"
   xmlns:svg="http://www.w3.org/2000/svg">
  <defs
     id="defs3" />
  <sodipodi:namedview
     id="namedview3"
     pagecolor="#ffffff"
     bordercolor="#000000"
     borderopacity="0.25"
     inkscape:showpageshadow="2"
     inkscape:pageopacity="0.0"
     inkscape:pagecheckerboard="0"
     inkscape:deskcolor="#d1d1d1"
     inkscape:zoom="18.833333"
     inkscape:cx="17.840708"
     inkscape:cy="17.256637"
     inkscape:window-width="1392"
     inkscape:window-height="997"
     inkscape:window-x="1844"
     inkscape:window-y="25"
     inkscape:window-maximized="0"
     inkscape:current-layer="svg3" />
  <path
     fill="#77b255"
     d="M 7.4074862,15.195041 C 0.93908419,11.25844 -0.65834581,-0.2396979 0.63533519,1.0718839 c -1.293681,-1.3115818 10.35127281,0 14.23231381,6.5597639 0,-2.6231635 2.587361,-13.1176727 6.468402,-3.9347453 3.882872,9.1829265 2.589191,10.4945085 2.589191,13.1176725 0,2.623164 -5.176551,2.623164 -5.176551,2.623164 0,0 0.228727,5.016289 -2.360464,5.016289 -2.587361,0 -3.654144,1.081545 -12.7099068,-2.8532 -9.057593,-3.9366 1.141806,-6.405787 3.729166,-6.405787 z"
     id="path1"
     style="stroke-width:1.84244" />
  <path
     fill="#f4900c"
     d="M 23.279317,42.393201 C 37.213371,56.520069 60.153784,66.660246 63.388901,63.380364 66.624017,60.100483 56.620408,36.842632 42.688183,22.715765 28.754129,8.5888983 21.590396,8.6872206 15.515404,14.844419 9.4422432,21.003474 9.3452622,28.266334 23.279317,42.393201 Z"
     id="path2"
     style="stroke-width:1.84244" />
  <path
     d="m 24.280227,25.633896 c 1.778582,-1.803193 5.068592,-5.166557 8.5855,-11.327467 1.377852,0.912728 2.843535,2.023955 4.408028,3.354088 -5.128976,6.702609 -14.859941,9.863763 -12.993528,7.973379 z m 13.696178,14.974663 c 1.904839,-1.931197 5.544345,-5.658167 9.341215,-12.700266 1.257084,1.543473 2.468422,3.140747 3.623037,4.767702 -5.136296,6.672927 -14.823346,9.817384 -12.964252,7.932564 z M 20.957279,39.957407 c 6.552574,-3.725115 10.045694,-7.253585 11.897469,-9.129129 1.866413,-1.895949 -1.266233,8.004916 -7.899319,13.197444 -0.569073,-0.53799 -3.268053,-3.278027 -3.99815,-4.068315 z m 22.292658,17.297296 c -1.637686,-0.912728 -3.30099,-1.901516 -4.967953,-2.962654 5.988991,-3.534035 9.275342,-6.832468 11.041115,-8.622676 1.687091,-1.712291 -0.70631,6.209143 -6.073162,11.58533 z"
     fill="#d67503"
     id="path3"
     style="stroke-width:1.84244" />
</svg>
